
        <svg xmlns="http://www.w3.org/2000/svg" xmlns:xlink="http://www.w3.org/1999/xlink" version="1.1" width="3300" 
        height="2356.497628366051" viewBox="0 0 3300 2356.497628366051">
			
			<g transform="scale(15.000000000000002) translate(10, 10)">
				<defs id="SvgjsDefs1111"><linearGradient id="SvgjsLinearGradient1116"><stop id="SvgjsStop1117" stop-color="#26275f" offset="0"></stop><stop id="SvgjsStop1118" stop-color="#813e96" offset="0.14"></stop><stop id="SvgjsStop1119" stop-color="#2e64af" offset="0.29"></stop><stop id="SvgjsStop1120" stop-color="#3faa49" offset="0.5"></stop><stop id="SvgjsStop1121" stop-color="#f2e64a" offset="0.71"></stop><stop id="SvgjsStop1122" stop-color="#f2903b" offset="0.86"></stop><stop id="SvgjsStop1123" stop-color="#ed4533" offset="1"></stop></linearGradient><linearGradient id="SvgjsLinearGradient1124"><stop id="SvgjsStop1125" stop-color="#26275f" offset="0"></stop><stop id="SvgjsStop1126" stop-color="#813e96" offset="0.14"></stop><stop id="SvgjsStop1127" stop-color="#2e64af" offset="0.29"></stop><stop id="SvgjsStop1128" stop-color="#3faa49" offset="0.5"></stop><stop id="SvgjsStop1129" stop-color="#f2e64a" offset="0.71"></stop><stop id="SvgjsStop1130" stop-color="#f2903b" offset="0.86"></stop><stop id="SvgjsStop1131" stop-color="#ed4533" offset="1"></stop></linearGradient></defs><g id="SvgjsG1112" featureKey="tOsHRK-0" transform="matrix(0.9648314503832788,0,0,0.9648314503832788,53.687799618950876,-6.077852195463282)" fill="url(#SvgjsLinearGradient1116)"><g xmlns="http://www.w3.org/2000/svg" fill="none" stroke="black" font-family="Times New Roman" font-size="16" transform="scale(1 -1)"><g transform="translate(0 -96)"><g><path d="M 21.633,34.925 C 24.973,46.855 40.837,53.71 46.922,66.223 C 49.866,72.279 48.49,83.461 43.464,87.939 C 43.197,88.178 42.09,90.326 43.217,89.521 C 54.416,81.327 63.521,70.509 59.309,60.068 C 53.464,45.577 38.409,38.34 38.519,23.585 C 38.566,17.447 43.088,12.523 48.838,7.375 L 49.073,6.299 C 34.143,10.56 17.742,21.028 21.633,34.925 Z M 59.314,18.723 C 67.987,26.524 73.282,31.263 71.043,40.298 C 73.766,36.119 76.295,30.323 74.135,25.806 C 72.203,21.769 70.28,18.956 63.244,15.02 C 59.515,12.935 56.712,10.677 54.37,6.898 C 54.248,10.853 55.011,14.852 59.314,18.723 Z M 49.686,32.153 C 53.003,38.255 57.845,42.622 62.538,48.882 C 65.869,53.325 68.92,60.704 65.731,66.728 L 65.937,67.016 C 70.824,61.556 71.028,52.654 69.495,46.059 C 67.086,35.69 58.5,31.5 53.511,23.918 C 51.557,20.948 50.446,17.311 51,13.5 C 45.461,18.021 46.717,26.69 49.686,32.153 Z" stroke-linejoin="miter" stroke-linecap="round" stroke="none" stroke-width="0.75" fill="url(#SvgjsLinearGradient1116)" marker-start="none" marker-end="none" stroke-miterlimit="79.8403193612775"></path></g></g></g></g><g id="SvgjsG1113" featureKey="dVtZHI-0" transform="matrix(2.7359764559740887,0,0,2.7359764559740887,-2.517095939004123,85.11628922756236)" fill="url(#SvgjsLinearGradient1124)"><path d="M16.36 12 c1.1067 -0.70666 1.66 -1.7067 1.66 -3 c0 -0.97334 -0.34666 -1.81 -1.04 -2.51 s-1.5267 -1.05 -2.5 -1.05 l-13.56 0 l0 13.12 l13.56 0 c0.97334 0 1.8067 -0.35 2.5 -1.05 s1.04 -1.5367 1.04 -2.51 c0 -1.2933 -0.55334 -2.2934 -1.66 -3 z M14.48 6.5600000000000005 c0.66666 0 1.2367 0.24 1.71 0.72 s0.71 1.0533 0.71 1.72 s-0.23666 1.24 -0.71 1.72 s-1.0433 0.72 -1.71 0.72 l-12.46 0 l0 -4.88 l12.46 0 z M14.48 17.44 l-12.46 0 l0 -4.88 l12.46 0 c0.66666 0 1.2367 0.24 1.71 0.72 s0.71 1.0533 0.71 1.72 s-0.23666 1.24 -0.71 1.72 s-1.0433 0.72 -1.71 0.72 z M19.76 6.119999999999999 l0.000019531 7.76 c0 1.8667 0.97334 3.24 2.92 4.12 c1.4667 0.66666 3.3466 1 5.64 1 c2.3066 0 4.1934 -0.33334 5.66 -1 c1.9333 -0.88 2.9 -2.2534 2.9 -4.12 l0 -7.76 c0 -0.37334 -0.18666 -0.56 -0.56 -0.56 s-0.56 0.18666 -0.56 0.56 l0 0 l0 7.76 c0 1.5733 -0.96 2.6934 -2.88 3.36 c-1.24 0.42666 -2.76 0.64 -4.56 0.64 s-3.32 -0.21334 -4.56 -0.64 c-1.92 -0.66666 -2.88 -1.7867 -2.88 -3.36 l0 -7.76 c0 -0.37334 -0.18666 -0.56 -0.56 -0.56 s-0.56 0.18666 -0.56 0.56 z M51.4 5.82 c-0.72 -0.25334 -1.4467 -0.38 -2.18 -0.38 l-10.56 0 l0 13.12 l10.56 0 c0.73334 0 1.46 -0.12666 2.18 -0.38 c1.3067 -0.45334 2.3634 -1.25 3.17 -2.39 s1.21 -2.4034 1.21 -3.79 s-0.40334 -2.65 -1.21 -3.79 s-1.8633 -1.9367 -3.17 -2.39 z M51.04 17.14 c-0.56 0.2 -1.1667 0.30008 -1.82 0.30008 l-9.44 0 l0 -10.88 l9.44 0 c0.65334 0 1.26 0.1 1.82 0.3 c1.08 0.38666 1.9533 1.0533 2.62 2 s1 1.9933 1 3.14 s-0.33334 2.1934 -1 3.14 s-1.54 1.6133 -2.62 2 z M73.8 17.66 l-7.42 -5.54 l7.42 -5.56 c0.14666 -0.10666 0.22 -0.25332 0.22 -0.43998 c0 -0.37334 -0.19334 -0.56 -0.58 -0.56 c-0.12 0 -0.22666 0.03334 -0.32 0.1 l-7.66 5.76 l-7.66 -5.76 c-0.09334 -0.06666 -0.2 -0.1 -0.32 -0.1 c-0.2 0 -0.35334 0.07334 -0.46 0.22 c-0.22666 0.30666 -0.19332 0.56666 0.10002 0.78 l7.42 5.56 l-7.42 5.54 c-0.14666 0.10666 -0.22 0.25332 -0.22 0.43998 c0 0.37334 0.19334 0.56 0.58 0.56 c0.12 0 0.22666 -0.03334 0.32 -0.1 l7.66 -5.76 l7.66 5.76 c0.09334 0.06666 0.2 0.1 0.32 0.1 c0.38666 0 0.58 -0.18666 0.58 -0.56 c0 -0.18666 -0.07334 -0.33332 -0.22 -0.43998 z"></path></g>
			</g>
		</svg>
	